<svg xmlns="http://www.w3.org/2000/svg" width="65.368" height="72.452" viewBox="0 0 65.368 72.452">
  <g id="Group_470" data-name="Group 470" transform="translate(-938 -2784.667)">
    <path id="Path_6135" data-name="Path 6135" d="M324.671,470.594a4.753,4.753,0,0,1-4.625-2.2c-1.674-2.281-2.955-2.116-4.9-.092a6.016,6.016,0,0,1-3.089,1.782,17.185,17.185,0,0,1-5.728.043,7.7,7.7,0,0,1-3.457-2.075c-2.027-1.865-3.546-1.74-5.17.476a4.192,4.192,0,0,1-2.257,1.539,7.852,7.852,0,0,1-7.487-1.766c-2.984-2.787-5.372-5.853-5.073-10.253.321-4.713,3.475-8.942,8.013-9.923,5.6-1.211,8.45-4.923,9.6-10.037,1.115-4.945,5.064-6.241,9.529-6.178a9.587,9.587,0,0,1,9.391,6.668c.492,1.7.942,3.408,1.52,5.074a7.507,7.507,0,0,0,6.07,5.347c3.3.564,6.049,1.745,7.293,5.194,1.407,3.9,1.517,7.663-1.008,11.169a22.192,22.192,0,0,1-2.633,3.02C328.736,470.238,327.708,470.589,324.671,470.594Z" transform="translate(660.646 2386.484)" fill="#534d4d" fill-rule="evenodd"/>
    <path id="Path_6136" data-name="Path 6136" d="M387.25,345.017c-.166,3.964-.72,7.769-2.781,11.167-3.479,5.738-8.6,5.815-12.257.224-4.037-6.169-3.748-17.525.6-23.527,3.158-4.36,7.7-4.406,10.882-.089C386.392,336.449,387.052,340.706,387.25,345.017Z" transform="translate(601.987 2455.88)" fill="#534d4d" fill-rule="evenodd"/>
    <path id="Path_6137" data-name="Path 6137" d="M309.6,342.538c.13-4.4.877-8.636,3.577-12.279,3.134-4.229,7.734-4.2,10.76.1A15.4,15.4,0,0,1,326,334.142a23.991,23.991,0,0,1-.7,18.44,13.265,13.265,0,0,1-1.694,2.712c-3.068,3.807-7.459,3.66-10.406-.325C310.471,351.275,309.713,347,309.6,342.538Z" transform="translate(642.514 2457.557)" fill="#534d4d" fill-rule="evenodd"/>
    <path id="Path_6138" data-name="Path 6138" d="M435.75,398.68c-.325,5.945-1.4,10.535-4.913,14.165-3.427,3.543-7.424,2.8-9.511-1.674-2.718-5.82-.959-15.447,3.642-19.936,3.448-3.364,7.523-2.659,9.354,1.818A33.91,33.91,0,0,1,435.75,398.68Z" transform="translate(567.618 2415.499)" fill="#534d4d" fill-rule="evenodd"/>
    <path id="Path_6139" data-name="Path 6139" d="M280.718,405.439c.025,4.06-.437,6.827-2.231,9.206a4.59,4.59,0,0,1-6.527,1.174c-2.662-1.707-4.09-4.325-5.034-7.225-1.429-4.394-1.765-8.817.175-13.159,1.84-4.117,5.722-4.823,8.907-1.593A17.208,17.208,0,0,1,280.718,405.439Z" transform="translate(672.251 2413.676)" fill="#534d4d" fill-rule="evenodd"/>
  </g>
</svg>
