<?xml version="1.0" encoding="utf-8"?>
<!-- Generator: Adobe Illustrator 23.0.1, SVG Export Plug-In . SVG Version: 6.00 Build 0)  -->
<svg version="1.1" id="Warstwa_1" xmlns="http://www.w3.org/2000/svg" xmlns:xlink="http://www.w3.org/1999/xlink" x="0px" y="0px"
	 viewBox="0 0 200 66" style="enable-background:new 0 0 200 66;" xml:space="preserve">
<g>
	<path d="M78.9,48.7h-3.5v17.1h3.7V54.9l8.3,10.9h3.2V48.7h-3.7v10.5L78.9,48.7z M13.8,65.3c0.1,0,0.1-0.1,0.2-0.1v-4.4
		c0,0-0.1,0.1-0.1,0.1c-0.5,0.5-1,0.9-1.6,1.1c-0.6,0.3-1.3,0.4-2.1,0.4c-0.8,0-1.5-0.1-2.1-0.4c-0.6-0.3-1.2-0.7-1.6-1.2
		c-0.5-0.5-0.8-1.1-1.1-1.7C5.1,58.6,5,57.9,5,57.2v0c0-0.7,0.1-1.4,0.4-2.1c0.3-0.6,0.6-1.2,1.1-1.7c0.5-0.5,1-0.9,1.6-1.1
		c0.6-0.3,1.3-0.4,2.1-0.4c0.8,0,1.5,0.1,2.1,0.4c0.6,0.3,1.2,0.7,1.7,1.2c0,0,0.1,0.1,0.1,0.2v-4.4c-0.1,0-0.1-0.1-0.2-0.1
		c-1.1-0.5-2.3-0.7-3.7-0.7S7.6,48.6,6.5,49c-1.1,0.5-2.1,1.1-2.9,1.9c-0.8,0.8-1.4,1.7-1.9,2.8C1.2,54.8,1,56,1,57.2v0
		c0,1.2,0.2,2.4,0.7,3.4c0.5,1.1,1.1,2,1.9,2.8c0.8,0.8,1.8,1.4,2.9,1.9c1.1,0.5,2.3,0.7,3.7,0.7S12.7,65.8,13.8,65.3 M18.7,65.8
		h14.3v-3.3h-9.5l9.5-10.9v-2.9H19V52h9.2l-9.5,10.9V65.8z M49.8,42.3l2.6-7.1H51l-1,2.8c-0.2,0.5-0.4,1.2-0.4,1.3
		c0-0.1-0.2-0.8-0.4-1.3l-1.4-2.9h-0.1l-1.4,2.9c-0.2,0.5-0.4,1.2-0.4,1.3c0-0.1-0.2-0.8-0.4-1.3l-1-2.8h-1.5l2.6,7.1h0.1l1.6-3.4
		c0.2-0.4,0.4-1,0.4-1c0,0.1,0.2,0.7,0.4,1l1.6,3.4H49.8z M47,58.6h-4.6l2.3-5.5L47,58.6z M50,65.8h4l-7.4-17.2h-3.5l-7.4,17.2h3.9
		l1.6-3.8h7.3L50,65.8z M59.9,39.6l2.3-4.3h-1.5l-0.9,1.9c-0.3,0.5-0.5,1.3-0.5,1.3s-0.3-0.8-0.6-1.3l-1-1.9H56l2.4,4.5v2.6h1.5
		V39.6z M67.6,54.6c0,0.7-0.2,1.3-0.7,1.8c-0.5,0.4-1.2,0.7-2.2,0.7h-3.8v-4.9h3.8c0.9,0,1.7,0.2,2.2,0.6
		C67.4,53.1,67.6,53.7,67.6,54.6L67.6,54.6z M70,50.4c-1.2-1.2-2.8-1.7-5-1.7h-7.9v17.1h3.8v-5.5h2.9h0l3.7,5.5H72l-4.2-6.1
		c1.1-0.4,2-1,2.7-1.9c0.7-0.9,1-2,1-3.4v0C71.5,52.7,71,51.4,70,50.4 M70.6,38.8c0,1.3-0.7,2.2-2.3,2.2h-0.6v-4.5h0.6
		C69.9,36.5,70.6,37.4,70.6,38.8 M72.1,38.8c0-2.1-1.5-3.5-3.7-3.5h-2.2v7h2.2C70.5,42.3,72.1,40.8,72.1,38.8 M79.2,40.1h-1.7L78,39
		c0.2-0.5,0.4-1.2,0.4-1.2c0,0.1,0.2,0.8,0.4,1.2L79.2,40.1z M80.1,42.3h1.5l-3.2-7.1h-0.1l-3.1,7.1h1.4l0.4-0.9h2.7L80.1,42.3z
		 M91,42.3l2.6-7.1h-1.4l-1,2.8c-0.2,0.5-0.4,1.2-0.4,1.3c0-0.1-0.2-0.8-0.4-1.3L89,35.2h-0.1l-1.4,2.9c-0.2,0.5-0.4,1.2-0.4,1.3
		c0-0.1-0.2-0.8-0.4-1.3l-1-2.8h-1.5l2.6,7.1h0.1l1.6-3.4c0.2-0.4,0.4-1,0.4-1c0,0.1,0.2,0.7,0.4,1l1.6,3.4H91z M103.3,42.3h0.1
		v-7.1h-1.4v2.9c0,0.5,0.1,1.3,0.1,1.3s-0.5-0.6-0.8-1l-3.5-3.3h-0.1v7.1H99v-2.9c0-0.5-0.1-1.3-0.1-1.3s0.5,0.6,0.8,1L103.3,42.3z
		 M108,42.3h1.4v-7H108V42.3z M105.2,58.6h-4.6l2.3-5.5L105.2,58.6z M108.1,65.8h4l-7.4-17.2h-3.5l-7.4,17.2h3.9l1.6-3.8h7.3
		L108.1,65.8z M115.3,38.8c0-1.3,0.9-2.3,2.1-2.3c0.8,0,1.4,0.4,1.7,0.9l1.1-0.8c-0.6-1-1.5-1.4-2.8-1.4c-2,0-3.6,1.5-3.6,3.6
		c0,2.1,1.6,3.6,3.6,3.6c1.4,0,2.3-0.6,2.9-1.5l-1.1-0.8c-0.4,0.6-0.9,1-1.8,1C116.1,41.1,115.3,40.1,115.3,38.8 M127.6,36.5h2v-1.3
		h-5.5v1.3h2v5.8h1.4V36.5z M132.9,56.8c0,0.7-0.1,1.4-0.4,2.1c-0.3,0.6-0.6,1.2-1.1,1.7c-0.5,0.5-1,0.9-1.6,1.1
		c-0.6,0.3-1.3,0.4-2.1,0.4c-0.8,0-1.5-0.1-2.1-0.4c-0.6-0.3-1.2-0.7-1.6-1.2c-0.5-0.5-0.8-1.1-1.1-1.7c-0.3-0.6-0.4-1.3-0.4-2.1v0
		c0-0.7,0.1-1.4,0.4-2.1c0.3-0.6,0.6-1.2,1.1-1.7c0.5-0.5,1-0.9,1.6-1.1c0.6-0.3,1.3-0.4,2.1-0.4c0.8,0,1.5,0.1,2.1,0.4
		c0.6,0.3,1.2,0.7,1.7,1.2c0.5,0.5,0.8,1.1,1.1,1.7C132.8,55.3,132.9,56,132.9,56.8L132.9,56.8z M134.3,50.5
		c-0.8-0.8-1.8-1.4-2.9-1.9c-1.1-0.5-2.3-0.7-3.7-0.7s-2.6,0.2-3.7,0.7c-1.1,0.5-2.1,1.1-2.9,1.9c-0.8,0.8-1.4,1.7-1.9,2.8
		c-0.5,1.1-0.7,2.2-0.7,3.4v0c0,1.2,0.2,2.4,0.7,3.4c0.5,1.1,1.1,2,1.9,2.8c0.8,0.8,1.8,1.4,2.9,1.9c1.1,0.5,2.3,0.7,3.7,0.7
		c1.3,0,2.6-0.2,3.7-0.7c1.1-0.5,2.1-1.1,2.9-1.9c0.8-0.8,1.4-1.7,1.9-2.8c0.5-1.1,0.7-2.2,0.7-3.4v0c0-1.2-0.2-2.4-0.7-3.4
		C135.8,52.2,135.1,51.3,134.3,50.5 M140.2,42.3l2.6-7.1h-1.4l-1,2.8c-0.2,0.5-0.4,1.2-0.4,1.3c0-0.1-0.2-0.8-0.4-1.3l-1.4-2.9H138
		l-1.4,2.9c-0.2,0.5-0.4,1.2-0.4,1.3c0-0.1-0.2-0.8-0.4-1.3l-1-2.8h-1.5l2.6,7.1h0.1l1.6-3.4c0.2-0.4,0.4-1,0.4-1
		c0,0.1,0.2,0.7,0.4,1l1.6,3.4H140.2z M151.9,38.8c0,1.3-0.9,2.3-2.1,2.3c-1.3,0-2.1-1-2.1-2.3c0-1.3,0.9-2.3,2.1-2.3
		C151.1,36.4,151.9,37.4,151.9,38.8 M153.4,38.8c0-2.1-1.6-3.6-3.6-3.6s-3.6,1.5-3.6,3.6c0,2.1,1.6,3.6,3.6,3.6
		S153.4,40.8,153.4,38.8 M158.9,65.4l5.9-17.2h-4l-3.6,11.6l-3.9-11.6h-3.2l-3.9,11.6l-3.6-11.6h-4.1l5.9,17.2h3.3l3.9-11.2
		l3.9,11.2H158.9z M176.8,65.8c0.6-0.1,1.2-0.3,1.7-0.5v-4.1c-0.4,0.3-0.9,0.6-1.3,0.9c-0.7,0.4-1.5,0.5-2.5,0.5
		c-0.7,0-1.4-0.1-2-0.4c-0.6-0.3-1.1-0.7-1.6-1.2c-0.4-0.5-0.8-1.1-1-1.7c-0.2-0.7-0.4-1.3-0.4-2.1v0c0-0.7,0.1-1.4,0.4-2.1
		c0.2-0.6,0.6-1.2,1-1.7c0.4-0.5,1-0.9,1.6-1.1c0.6-0.3,1.3-0.4,2-0.4c0.9,0,1.7,0.2,2.4,0.5c0.5,0.2,1,0.6,1.5,0.9V49
		c-0.5-0.2-1-0.4-1.6-0.5c-0.7-0.1-1.4-0.2-2.2-0.2c-1.3,0-2.5,0.2-3.6,0.7c-1.1,0.5-2,1.1-2.8,1.9c-0.8,0.8-1.4,1.7-1.8,2.8
		c-0.4,1.1-0.7,2.2-0.7,3.4v0c0,1.2,0.2,2.4,0.7,3.4c0.4,1.1,1.1,2,1.8,2.8c0.8,0.8,1.7,1.4,2.8,1.9c1.1,0.5,2.3,0.7,3.5,0.7
		C175.3,66,176.1,65.9,176.8,65.8 M192.1,58.1h-4.6l2.3-5.5L192.1,58.1z M199,65.3l-7.4-17.2h-3.5l-7.4,17.2h3.9l1.6-3.8h7.3
		l1.6,3.8H199z"/>
	<path d="M92,24.9c0.4-1,0.7-2.1,0.7-3.3v0c0-1.2-0.2-2.2-0.7-3.3c-0.4-1-1-1.9-1.8-2.6c-0.3-0.3-0.7-0.6-1.1-0.9
		c0.4-0.3,0.8-0.5,1.1-0.9c0.8-0.8,1.4-1.7,1.8-2.7c0.4-1,0.7-2.1,0.7-3.3v0c0-1.2-0.2-2.2-0.7-3.3c-0.4-1-1-1.9-1.8-2.6
		c-0.8-0.7-1.7-1.3-2.8-1.8c-0.3-0.1-1.4-0.3-1.7-0.4l-1.9,3c0.7,0,1.4,0.1,2,0.4C86.5,3.7,87,4,87.5,4.5c0.4,0.5,0.8,1,1,1.6
		c0.2,0.6,0.4,1.3,0.4,2v0c0,0.7-0.1,1.3-0.4,2c-0.2,0.6-0.6,1.1-1,1.6c-0.4,0.5-1,0.8-1.6,1.1c-0.6,0.3-2.5,0.4-3.3,0.4
		c0,0,0,0,0,0v3.4c0.7,0,2.6,0.1,3.2,0.4c0.6,0.3,1.1,0.6,1.6,1.1c0.4,0.5,0.8,1,1,1.6c0.2,0.6,0.4,1.3,0.4,2v0c0,0.7-0.1,1.3-0.4,2
		c-0.2,0.6-0.6,1.1-1,1.6c-0.4,0.5-1,0.8-1.6,1.1c-0.6,0.3-1.3,0.4-2,0.4c-0.7,0-1.4-0.1-2-0.4c-0.6-0.3-1.1-0.6-1.6-1.1
		c-0.4-0.5-0.8-1-1-1.6c-0.2-0.5-0.3-1-0.3-1.5l-3,3.2c0.4,0.9,0.9,1.6,1.6,2.3c0.8,0.7,1.7,1.3,2.8,1.8c1.1,0.4,2.2,0.7,3.5,0.7
		c1.3,0,2.5-0.2,3.5-0.7c1.1-0.4,2-1,2.8-1.8C91,26.8,91.6,25.9,92,24.9 M104.4,18.2h1.5v-6.5h-1.5V18.2z M111.2,15.8
		c0,0.2-0.1,0.4-0.2,0.6c-0.2,0.3-0.5,0.5-1,0.5c-0.9,0-1.2-0.8-1.2-1.2v0c0-0.6,0.4-1.3,1.2-1.3c0.6,0,1,0.3,1.1,0.7
		C111.2,15.4,111.2,15.6,111.2,15.8 M111.2,18.2h1.5v-4.9h-1.5v0.5c-0.2-0.3-0.7-0.7-1.5-0.7c-1.3,0-2.5,1-2.5,2.6
		c0,1.4,0.9,2.6,2.5,2.6c0.6,0,1.2-0.2,1.5-0.7V18.2z M116,14.4h0.7v-1.1H116v-1.6h-1.5v1.6h-0.7v1.1h0.7v3.8h1.5V14.4z M121.9,15.1
		c0,6.2-5,11.2-11.2,11.2c-6.2,0-11.2-5-11.2-11.2c0-6.2,5-11.2,11.2-11.2C116.8,4,121.9,9,121.9,15.1 M126.1,15L126.1,15
		c0-2.2-0.4-4.1-1.1-5.9c-0.8-1.8-1.8-3.4-3.2-4.7c-1.4-1.3-3-2.4-4.9-3.2c-1.9-0.8-4-1.2-6.2-1.2c-2.3,0-4.3,0.4-6.2,1.2
		c-1.9,0.8-3.5,1.9-4.9,3.2c-1.4,1.4-2.5,3-3.2,4.8C95.4,11,95,12.9,95,15v0.1c0,2.1,0.4,4,1.1,5.8c0.8,1.8,1.8,3.4,3.2,4.7
		c1.4,1.3,3,2.4,4.9,3.2c1.9,0.8,4,1.2,6.2,1.2c2.3,0,4.3-0.4,6.2-1.2c1.9-0.8,3.5-1.9,4.9-3.2c1.4-1.4,2.5-3,3.2-4.8
		C125.7,19,126.1,17.1,126.1,15"/>
</g>
</svg>
