<svg xmlns="http://www.w3.org/2000/svg" width="28.161" height="28.917" viewBox="0 0 28.161 28.917">
  <g id="waving-hand" transform="translate(6)">
    <g id="Group_340" data-name="Group 340" transform="translate(17.945 0)">
      <g id="Group_339" data-name="Group 339" transform="translate(0 0)">
        <path id="Path_1556" data-name="Path 1556" d="M337.126,4.239A13.242,13.242,0,0,0,334.052.106a.411.411,0,0,0-.551.609,12.419,12.419,0,0,1,2.882,3.877.411.411,0,1,0,.742-.352Z" transform="translate(-333.366 0)" fill="#fff"/>
      </g>
    </g>
    <g id="Group_342" data-name="Group 342" transform="translate(16.679 2.031)">
      <g id="Group_341" data-name="Group 341">
        <path id="Path_1557" data-name="Path 1557" d="M312.959,39.92a10.9,10.9,0,0,0-2.01-2.7.411.411,0,1,0-.575.586,10.073,10.073,0,0,1,1.858,2.5.411.411,0,1,0,.727-.382Z" transform="translate(-310.251 -37.1)" fill="#fff"/>
      </g>
    </g>
    <g id="Group_344" data-name="Group 344" transform="translate(-6 18.342)">
      <g id="Group_343" data-name="Group 343" transform="translate(0)">
        <path id="Path_1558" data-name="Path 1558" d="M9.269,247.8a12.415,12.415,0,0,1-2.882-3.876.411.411,0,0,0-.742.352,13.242,13.242,0,0,0,3.073,4.133.411.411,0,1,0,.551-.609Z" transform="translate(-5.605 -243.691)" fill="#fff"/>
      </g>
    </g>
    <g id="Group_346" data-name="Group 346" transform="translate(-3.69 17.715)">
      <g id="Group_345" data-name="Group 345" transform="translate(0)">
        <path id="Path_1559" data-name="Path 1559" d="M50.424,234.957a10.075,10.075,0,0,1-1.858-2.5.411.411,0,0,0-.727.382,10.9,10.9,0,0,0,2.01,2.7.411.411,0,1,0,.575-.586Z" transform="translate(-47.792 -232.239)" fill="#fff"/>
      </g>
    </g>
    <g id="koci_odcisk" data-name="koci odcisk" transform="matrix(0.951, -0.309, 0.309, 0.951, -355.414, -220.745)">
      <path id="Path_6135" data-name="Path 6135" d="M295.337,443.454a1.418,1.418,0,0,1-1.38-.655c-.5-.681-.882-.632-1.461-.027a1.8,1.8,0,0,1-.922.532,5.128,5.128,0,0,1-1.709.013,2.3,2.3,0,0,1-1.031-.619c-.6-.556-1.058-.519-1.543.142a1.251,1.251,0,0,1-.673.459,2.343,2.343,0,0,1-2.234-.527,3.763,3.763,0,0,1-1.514-3.059,3.19,3.19,0,0,1,2.391-2.961,3.576,3.576,0,0,0,2.866-2.995c.333-1.476,1.511-1.862,2.843-1.844a2.861,2.861,0,0,1,2.8,1.99c.147.506.281,1.017.453,1.514a2.24,2.24,0,0,0,1.811,1.6,2.449,2.449,0,0,1,2.176,1.55,3.387,3.387,0,0,1-.3,3.333,6.625,6.625,0,0,1-.786.9A2.032,2.032,0,0,1,295.337,443.454Z" transform="translate(-15.469 -94.738)" fill="none" stroke="#fff" stroke-width="1" fill-rule="evenodd"/>
      <path id="Path_6136" data-name="Path 6136" d="M374.7,334.188a6.779,6.779,0,0,1-.83,3.332c-1.038,1.712-2.565,1.735-3.657.067a7.038,7.038,0,0,1,.179-7.02,1.843,1.843,0,0,1,3.247-.027A6.385,6.385,0,0,1,374.7,334.188Z" transform="translate(-93.659 -2.236)" fill="none" stroke="#fff" stroke-width="1" fill-rule="evenodd"/>
      <path id="Path_6137" data-name="Path 6137" d="M309.6,331.713a6.22,6.22,0,0,1,1.067-3.664,1.828,1.828,0,0,1,3.211.029,4.6,4.6,0,0,1,.617,1.13,7.158,7.158,0,0,1-.209,5.5,3.958,3.958,0,0,1-.506.809,1.82,1.82,0,0,1-3.105-.1A6.265,6.265,0,0,1,309.6,331.713Z" transform="translate(-39.638)" fill="none" stroke="#fff" stroke-width="1" fill-rule="evenodd"/>
      <path id="Path_6138" data-name="Path 6138" d="M424.727,391.978a6.125,6.125,0,0,1-1.466,4.227,1.6,1.6,0,0,1-2.838-.5,5.908,5.908,0,0,1,1.087-5.949,1.576,1.576,0,0,1,2.791.542A10.121,10.121,0,0,1,424.727,391.978Z" transform="translate(-139.473 -56.062)" fill="none" stroke="#fff" stroke-width="1" fill-rule="evenodd"/>
      <path id="Path_6139" data-name="Path 6139" d="M270.216,395.881a4.21,4.21,0,0,1-.666,2.747,1.37,1.37,0,0,1-1.948.35,3.8,3.8,0,0,1-1.5-2.156,5.3,5.3,0,0,1,.052-3.927,1.508,1.508,0,0,1,2.658-.475A5.135,5.135,0,0,1,270.216,395.881Z" transform="translate(0 -58.492)" fill="none" stroke="#fffffe" stroke-width="1" fill-rule="evenodd"/>
    </g>
  </g>
</svg>
