<svg xmlns="http://www.w3.org/2000/svg" width="34.995" height="35" viewBox="0 0 34.995 35">
  <g id="Group_469" data-name="Group 469" transform="translate(-1534 -171)">
    <path id="Path_23104" data-name="Path 23104" d="M2261.9,1531.356a11.787,11.787,0,0,0-7.764-10.333,6.813,6.813,0,0,0,2.994-6.413,6.552,6.552,0,0,0-2.513-4.6,6.83,6.83,0,1,0-8.057,11.013,11.751,11.751,0,0,0-7.771,10.3,17.214,17.214,0,0,1-5.366-17.478,17.491,17.491,0,0,1,33.435-1.322A17.334,17.334,0,0,1,2261.9,1531.356Z" transform="translate(-698.846 -1329.799)" fill="#fcb855" fill-rule="evenodd"/>
    <path id="Path_23105" data-name="Path 23105" d="M2310.436,1702.357a17.553,17.553,0,0,1-9.505-2.727.842.842,0,0,1-.446-.818,9.816,9.816,0,1,1,19.615.191.917.917,0,0,1-.4.592A17.033,17.033,0,0,1,2310.436,1702.357Z" transform="translate(-758.807 -1496.358)" fill="#fcb855" fill-rule="evenodd"/>
    <path id="Path_23106" data-name="Path 23106" d="M2347.064,1583.7a5.116,5.116,0,1,1-5.109,5.068A5.1,5.1,0,0,1,2347.064,1583.7Z" transform="translate(-795.569 -1403.286)" fill="#fcb855" fill-rule="evenodd"/>
  </g>
</svg>
